<svg width="1470" height="1080" viewBox="0 0 1470 1080" fill="none" xmlns="http://www.w3.org/2000/svg">
<path d="M438.094 532.04L416.16 505.023C416.044 505.117 415.93 505.211 415.816 505.306L438.094 532.04ZM429.614 538.76L408.249 511.291C408.208 511.322 408.168 511.354 408.127 511.386L429.614 538.76ZM336.654 598.6L305.658 614.419C309.863 622.659 317.176 628.886 325.981 631.723C334.786 634.56 344.359 633.775 352.584 629.54L336.654 598.6ZM278.254 253.64L243.767 248.986L243.766 248.991L278.254 253.64ZM419.694 -56.44L445.735 -33.3551C445.831 -33.4637 445.927 -33.5728 446.022 -33.6824L419.694 -56.44ZM445.454 -83.8L469.618 -58.7573C469.837 -58.9688 470.054 -59.1832 470.267 -59.4004L445.454 -83.8ZM474.894 -111.32L497.336 -84.7227C497.602 -84.9475 497.865 -85.1763 498.125 -85.409L474.894 -111.32ZM489.134 -123.32L510.874 -96.1458C510.973 -96.2254 511.072 -96.3056 511.171 -96.3863L489.134 -123.32ZM527.054 -152.12L508.61 -181.63C507.957 -181.222 507.317 -180.792 506.692 -180.341L527.054 -152.12ZM528.974 -153.4L509.37 -182.153C508.938 -181.858 508.513 -181.554 508.094 -181.24L528.974 -153.4ZM539.854 -160.76L521.41 -190.27C520.926 -189.968 520.45 -189.654 519.981 -189.328L539.854 -160.76ZM551.214 -167.8L568.749 -137.741C569.203 -138.006 569.652 -138.281 570.094 -138.567L551.214 -167.8ZM574.734 -181.72L558.797 -212.656C558.509 -212.508 558.223 -212.356 557.94 -212.199L574.734 -181.72ZM590.414 -190.04L621.203 -206.259C612.456 -222.864 592.119 -229.541 575.232 -221.354L590.414 -190.04ZM615.054 -134.84L582.538 -122.44C582.647 -122.155 582.759 -121.872 582.875 -121.59L615.054 -134.84ZM618.254 -126.84L650.838 -139.059C650.709 -139.405 650.574 -139.749 650.433 -140.09L618.254 -126.84ZM624.814 -107.64L591.718 -96.8839C591.745 -96.8009 591.772 -96.718 591.8 -96.6353L624.814 -107.64ZM629.454 -93.24L596.122 -83.2403C596.126 -83.2277 596.129 -83.215 596.133 -83.2023L629.454 -93.24ZM654.254 64.0399L689.049 63.4092C689.048 63.3734 689.047 63.3376 689.046 63.3019L654.254 64.0399ZM636.014 221.16L602.303 212.522C600.224 220.635 601.141 229.226 604.886 236.718L636.014 221.16ZM1278.25 357L1312.64 351.651C1311.01 341.16 1304.68 331.987 1295.44 326.742C1286.21 321.497 1275.09 320.754 1265.24 324.723L1278.25 357ZM1198.41 755.4L1210.34 788.092C1217.71 785.404 1223.95 780.308 1228.06 773.63L1198.41 755.4ZM802.254 757.64L774.502 736.643C774.493 736.656 774.483 736.668 774.474 736.681L802.254 757.64ZM920.814 383.24L928.918 349.397C917.132 346.574 904.726 350.087 896.169 358.67L920.814 383.24ZM605.756 -158.566C623.05 -166.951 630.272 -187.768 621.888 -205.062C613.503 -222.356 592.686 -229.578 575.392 -221.193L605.756 -158.566ZM574.894 -181.56L591.689 -151.081C592.016 -151.261 592.34 -151.446 592.661 -151.637L574.894 -181.56ZM551.374 -167.64L567.949 -137.041C568.639 -137.414 569.316 -137.811 569.979 -138.231L551.374 -167.64ZM540.014 -160.6L559.024 -131.451C559.315 -131.641 559.602 -131.834 559.887 -132.032L540.014 -160.6ZM529.134 -153.24L508.666 -181.384C508.528 -181.284 508.39 -181.182 508.254 -181.08L529.134 -153.24ZM527.214 -151.96L508.77 -181.471C508.175 -181.099 507.592 -180.709 507.02 -180.302L527.214 -151.96ZM467.257 -150.094C452.382 -137.923 450.19 -115.998 462.36 -101.123C474.531 -86.2481 496.456 -84.0557 511.331 -96.2262L467.257 -150.094ZM1240.49 -116.76L1266.63 -93.782C1279.03 -107.891 1278 -129.299 1264.3 -142.148C1250.59 -154.997 1229.16 -154.648 1215.88 -141.36L1240.49 -116.76ZM1170.89 -49.88L1148.97 -76.9044C1148.91 -76.8566 1148.85 -76.8086 1148.79 -76.7604L1170.89 -49.88ZM1148.81 -32.6L1169.55 -4.65219C1169.57 -4.66443 1169.58 -4.67667 1169.6 -4.6889L1148.81 -32.6ZM1087.05 7.39999L1104.12 37.7308C1104.16 37.7063 1104.2 37.6818 1104.25 37.6571L1087.05 7.39999ZM825.294 82.12L823.75 47.3542L823.749 47.3543L825.294 82.12ZM654.254 64.52L619.462 65.2581C619.793 80.8875 630.507 94.3778 645.655 98.2408L654.254 64.52ZM629.614 -92.76L596.194 -83.0574C596.229 -82.936 596.265 -82.8147 596.302 -82.6937L629.614 -92.76ZM624.974 -107.16L591.802 -96.6419C591.996 -96.0282 592.208 -95.42 592.436 -94.818L624.974 -107.16ZM618.254 -126.52L585.438 -114.938C585.513 -114.725 585.591 -114.512 585.67 -114.301L618.254 -126.52ZM615.214 -134.68L648.228 -145.685C648.034 -146.266 647.825 -146.843 647.601 -147.413L615.214 -134.68ZM590.414 -189.88L574.343 -220.747C566.131 -216.471 559.961 -209.099 557.199 -200.262C554.437 -191.426 555.31 -181.852 559.625 -173.661L590.414 -189.88ZM937.134 -250.52L941.667 -285.023L941.665 -285.024L937.134 -250.52ZM1240.33 -116.6L1217.81 -90.069C1231.63 -78.3408 1252.14 -79.1807 1264.95 -91.9997L1240.33 -116.6ZM707.694 856.36L691.468 887.146C703.895 893.695 719.041 892.132 729.867 883.182L707.694 856.36ZM525.934 707.56L498.964 729.552L498.967 729.556L525.934 707.56ZM437.934 532.2L415.97 505.208C415.917 505.251 415.864 505.294 415.812 505.337L437.934 532.2ZM636.174 221.64L661.143 197.4C652.354 188.347 639.353 184.76 627.165 188.026C614.978 191.293 605.513 200.901 602.429 213.136L636.174 221.64ZM920.654 383.4L912.589 417.253C924.365 420.058 936.752 416.543 945.299 407.97L920.654 383.4ZM1284.17 88.84L1311.16 66.8669C1311.15 66.8586 1311.15 66.8503 1311.14 66.842L1284.17 88.84ZM1392.97 295.08L1412.71 323.742C1425.08 315.222 1430.59 299.726 1426.37 285.308L1392.97 295.08ZM1278.09 357L1265.13 324.707C1265.11 324.712 1265.1 324.718 1265.08 324.723L1278.09 357ZM920.654 383.24L928.812 349.41C928.781 349.402 928.75 349.395 928.719 349.387L920.654 383.24ZM654.254 64.36L662.786 30.6219C652.273 27.9636 641.122 30.3575 632.627 37.0964C624.132 43.8353 619.264 54.149 619.46 64.9907L654.254 64.36ZM825.294 81.96L823.812 47.1916C823.791 47.1925 823.77 47.1934 823.749 47.1943L825.294 81.96ZM1087.05 7.23999L1104.12 37.5708C1104.16 37.5463 1104.2 37.5218 1104.25 37.4971L1087.05 7.23999ZM1148.81 -32.76L1167.79 -61.9293C1155.64 -69.8355 1139.86 -69.3805 1128.19 -60.7872L1148.81 -32.76ZM828.654 1260.84H863.454C863.454 1253.38 861.058 1246.12 856.619 1240.13L828.654 1260.84ZM1168.17 1570.52C1187.39 1570.52 1202.97 1554.94 1202.97 1535.72C1202.97 1516.5 1187.39 1500.92 1168.17 1500.92V1570.52ZM489.134 1500.92C469.915 1500.92 454.334 1516.5 454.334 1535.72C454.334 1554.94 469.915 1570.52 489.134 1570.52V1500.92ZM320.025 -475.865C308.502 -491.247 286.691 -494.375 271.309 -482.851C255.927 -471.327 252.8 -449.516 264.324 -434.135L320.025 -475.865ZM365.774 -356.76L386.643 -328.911C402.022 -340.436 405.148 -362.245 393.625 -377.625L365.774 -356.76ZM200.174 799.88L228.024 779.013L228.017 779.004L200.174 799.88ZM674.254 1109.16L682.109 1075.26L682.108 1075.26L674.254 1109.16ZM1356.81 965.48L1384.66 944.607C1373.13 929.23 1351.32 926.107 1335.94 937.632L1356.81 965.48ZM1407.05 1090.51C1418.58 1105.89 1440.39 1109.01 1455.77 1097.49C1471.15 1085.96 1474.27 1064.15 1462.74 1048.77L1407.05 1090.51ZM602.426 212.989C578.962 306.243 530.834 393.804 459.464 465.776L508.885 514.784C589.194 433.796 643.466 335.117 669.922 229.971L602.426 212.989ZM459.431 465.809C445.922 479.469 431.339 492.699 416.16 505.023L460.029 559.057C477.169 545.141 493.627 530.211 508.917 514.751L459.431 465.809ZM415.816 505.306C413.511 507.227 411.411 508.831 408.249 511.291L450.979 566.229C453.577 564.209 456.918 561.653 460.373 558.774L415.816 505.306ZM408.127 511.386C380.056 533.42 351.032 552.056 320.725 567.66L352.584 629.54C386.917 611.864 419.652 590.82 451.101 566.134L408.127 511.386ZM367.651 582.781C315.767 481.119 297.979 367.804 312.742 258.289L243.766 248.991C227.169 372.116 247.141 499.761 305.658 614.419L367.651 582.781ZM312.742 258.294C327.056 152.218 371.782 50.0672 445.735 -33.3551L393.653 -79.5249C310.166 14.6527 259.853 129.782 243.767 248.986L312.742 258.294ZM446.022 -33.6824C453.632 -42.4865 461.39 -50.8179 469.618 -58.7573L421.29 -108.843C411.278 -99.1822 402.077 -89.2736 393.367 -79.1976L446.022 -33.6824ZM470.267 -59.4004C479.178 -68.4619 488.135 -76.9592 497.336 -84.7227L452.453 -137.917C441.174 -128.401 430.611 -118.338 420.641 -108.2L470.267 -59.4004ZM498.125 -85.409C502.152 -89.0198 506.428 -92.5897 510.874 -96.1458L467.395 -150.494C462.24 -146.37 456.916 -141.94 451.664 -137.231L498.125 -85.409ZM511.171 -96.3863C522.674 -105.798 534.965 -114.915 547.416 -123.899L506.692 -180.341C493.863 -171.085 480.234 -161.002 467.097 -150.254L511.171 -96.3863ZM527.054 -152.12C545.498 -122.61 545.499 -122.61 545.5 -122.611C545.5 -122.611 545.5 -122.611 545.501 -122.611C545.502 -122.612 545.503 -122.613 545.504 -122.613C545.506 -122.614 545.508 -122.616 545.51 -122.617C545.514 -122.62 545.518 -122.622 545.523 -122.625C545.533 -122.631 545.544 -122.638 545.556 -122.646C545.581 -122.662 545.611 -122.68 545.646 -122.702C545.715 -122.746 545.805 -122.803 545.911 -122.87C546.119 -123.002 546.409 -123.187 546.74 -123.402C547.149 -123.668 548.505 -124.548 549.854 -125.56L508.094 -181.24C508.803 -181.772 509.2 -182.012 508.808 -181.758C508.74 -181.713 508.669 -181.668 508.617 -181.635C508.593 -181.62 508.578 -181.61 508.575 -181.608C508.574 -181.607 508.576 -181.609 508.581 -181.612C508.584 -181.614 508.588 -181.616 508.593 -181.619C508.595 -181.621 508.598 -181.622 508.6 -181.624C508.602 -181.625 508.603 -181.626 508.605 -181.627C508.606 -181.628 508.607 -181.628 508.608 -181.629C508.608 -181.629 508.609 -181.629 508.609 -181.629C508.609 -181.63 508.61 -181.63 527.054 -152.12ZM548.578 -124.647C551.06 -126.339 556.121 -129.684 559.727 -132.193L519.981 -189.328C516.228 -186.716 513.928 -185.261 509.37 -182.153L548.578 -124.647ZM558.298 -131.25C562.894 -134.122 565.516 -135.855 568.749 -137.741L533.679 -197.86C529.232 -195.266 524.495 -192.198 521.41 -190.27L558.298 -131.25ZM570.094 -138.567C576.868 -142.942 584.116 -147.156 591.529 -151.241L557.94 -212.199C549.673 -207.644 540.92 -202.579 532.334 -197.033L570.094 -138.567ZM590.671 -150.784C599.442 -155.302 599.815 -155.923 605.596 -158.727L575.232 -221.354C570.454 -219.037 560.586 -213.578 558.797 -212.656L590.671 -150.784ZM559.625 -173.821C568.267 -157.415 575.711 -140.343 582.538 -122.44L647.57 -147.24C639.998 -167.097 631.441 -186.825 621.203 -206.259L559.625 -173.821ZM582.875 -121.59C583.318 -120.516 583.742 -119.44 584.276 -118.085C584.782 -116.8 585.398 -115.236 586.075 -113.59L650.433 -140.09C649.991 -141.165 649.566 -142.241 649.032 -143.595C648.526 -144.88 647.911 -146.445 647.233 -148.09L582.875 -121.59ZM585.67 -114.621C587.753 -109.065 589.601 -103.398 591.718 -96.8839L657.91 -118.396C655.867 -124.682 653.555 -131.815 650.838 -139.059L585.67 -114.621ZM591.8 -96.6353C593.429 -91.7483 594.859 -87.45 596.122 -83.2403L662.787 -103.24C661.169 -108.63 659.399 -113.932 657.828 -118.645L591.8 -96.6353ZM596.133 -83.2023C610.725 -34.7635 618.408 15.0645 619.462 64.778L689.046 63.3019C687.861 7.41534 679.223 -48.6765 662.775 -103.278L596.133 -83.2023ZM619.46 64.6707C620.364 114.559 614.635 164.399 602.303 212.522L669.725 229.798C683.634 175.521 690.064 119.441 689.049 63.4092L619.46 64.6707ZM604.886 236.718L605.046 237.038L667.303 205.922L667.143 205.602L604.886 236.718ZM1243.87 362.349C1263.89 491.092 1237.98 624.636 1168.77 737.17L1228.06 773.63C1306.05 646.804 1335.17 496.508 1312.64 351.651L1243.87 362.349ZM1186.49 722.708C1065.66 766.794 933.472 766.809 813.778 724.803L790.73 790.477C925.435 837.751 1074.2 837.766 1210.34 788.092L1186.49 722.708ZM829.991 778.657C917.497 663.169 960.168 522.504 955.595 382.107L886.032 384.373C890.1 509.256 852.131 634.191 774.517 736.623L829.991 778.657ZM912.71 417.083C1037.2 446.894 1169.71 438.271 1291.26 389.277L1265.24 324.723C1157.36 368.208 1039.63 375.906 928.918 349.397L912.71 417.083ZM575.392 -221.193C569.639 -218.404 563.405 -215.21 557.127 -211.483L592.661 -151.637C596.623 -153.99 600.949 -156.235 605.756 -158.566L575.392 -221.193ZM558.099 -212.039C549.623 -207.369 541.18 -202.37 532.768 -197.049L569.979 -138.231C577.248 -142.83 584.485 -147.111 591.689 -151.081L558.099 -212.039ZM534.799 -198.239C529.679 -195.466 524.738 -192.366 520.141 -189.167L559.887 -132.032C562.65 -133.954 565.389 -135.654 567.949 -137.041L534.799 -198.239ZM521.004 -189.749C517.453 -187.433 513.023 -184.553 508.666 -181.384L549.602 -125.096C552.285 -127.047 555.215 -128.967 559.024 -131.451L521.004 -189.749ZM508.254 -181.08C508.963 -181.612 509.36 -181.852 508.969 -181.598C508.9 -181.553 508.83 -181.508 508.778 -181.475C508.754 -181.46 508.739 -181.451 508.735 -181.449C508.734 -181.448 508.736 -181.449 508.742 -181.452C508.744 -181.454 508.748 -181.457 508.753 -181.46C508.755 -181.461 508.758 -181.463 508.761 -181.465C508.762 -181.465 508.764 -181.466 508.765 -181.467C508.766 -181.468 508.767 -181.468 508.768 -181.469C508.768 -181.469 508.769 -181.47 508.769 -181.47C508.77 -181.47 508.77 -181.471 527.214 -151.96C545.657 -122.449 545.658 -122.45 545.659 -122.45C545.659 -122.45 545.66 -122.451 545.66 -122.451C545.661 -122.451 545.662 -122.452 545.663 -122.453C545.665 -122.454 545.667 -122.455 545.669 -122.456C545.673 -122.459 545.677 -122.462 545.682 -122.465C545.692 -122.471 545.703 -122.478 545.715 -122.486C545.74 -122.501 545.77 -122.52 545.805 -122.542C545.874 -122.585 545.964 -122.642 546.07 -122.709C546.278 -122.841 546.568 -123.027 546.899 -123.242C547.308 -123.507 548.665 -124.388 550.014 -125.4L508.254 -181.08ZM507.02 -180.302C493.767 -170.858 480.323 -160.783 467.257 -150.094L511.331 -96.2262C522.905 -105.696 535.061 -114.821 547.407 -123.618L507.02 -180.302ZM1214.36 -139.738C1194.67 -117.346 1172.88 -96.3022 1148.97 -76.9044L1192.82 -22.8557C1219.79 -44.7378 1244.4 -68.4941 1266.63 -93.782L1214.36 -139.738ZM1148.79 -76.7604C1142.03 -71.1965 1135.1 -65.7801 1128.03 -60.5111L1169.6 -4.6889C1177.56 -10.62 1185.36 -16.7235 1193 -22.9996L1148.79 -76.7604ZM1128.08 -60.5478C1109.53 -46.7864 1089.94 -34.2648 1069.86 -22.8571L1104.25 37.6571C1126.41 25.0648 1148.42 11.0264 1169.55 -4.65219L1128.08 -60.5478ZM1069.99 -22.9308C992.947 20.4077 908.521 43.59 823.75 47.3542L826.838 116.886C922.227 112.65 1017.32 86.5523 1104.12 37.7308L1069.99 -22.9308ZM823.749 47.3543C769.557 49.7628 715.376 44.1931 662.853 30.7992L645.655 98.2408C704.813 113.327 765.831 119.597 826.839 116.886L823.749 47.3543ZM689.046 63.782C687.863 7.98221 679.407 -48.2869 662.926 -102.826L596.302 -82.6937C610.861 -34.5131 618.406 15.4579 619.462 65.2581L689.046 63.782ZM663.034 -102.463C661.582 -107.466 659.811 -113.442 657.512 -119.502L592.436 -94.818C593.657 -91.5981 594.767 -87.9744 596.194 -83.0574L663.034 -102.463ZM658.146 -117.678C655.86 -124.888 653.418 -131.859 650.838 -138.739L585.67 -114.301C587.89 -108.381 589.928 -102.552 591.802 -96.6419L658.146 -117.678ZM651.07 -138.102C650.365 -140.099 649.599 -142.042 649.177 -143.13C648.676 -144.421 648.421 -145.106 648.228 -145.685L582.2 -123.675C582.967 -121.374 583.752 -119.339 584.291 -117.95C584.909 -116.358 585.183 -115.661 585.438 -114.938L651.07 -138.102ZM647.601 -147.413C639.984 -166.785 631.459 -186.631 621.203 -206.099L559.625 -173.661C568.249 -157.289 575.724 -140.015 582.827 -121.947L647.601 -147.413ZM606.485 -159.013C708.415 -212.083 822.473 -230.479 932.603 -216.016L941.665 -285.024C817.875 -301.281 689.373 -280.637 574.343 -220.747L606.485 -159.013ZM932.601 -216.017C1035.8 -202.458 1135.26 -160.145 1217.81 -90.069L1262.85 -143.131C1169.73 -222.175 1057.67 -269.782 941.667 -285.023L932.601 -216.017ZM1264.95 -91.9997L1265.11 -92.1597L1215.88 -141.36L1215.72 -141.2L1264.95 -91.9997ZM886.032 384.373C890.099 509.243 852.139 634.03 774.502 736.643L830.006 778.637C917.489 663.01 960.169 522.517 955.595 382.107L886.032 384.373ZM774.474 736.681C749.065 770.359 719.426 801.51 685.522 829.538L729.867 883.182C767.962 851.69 801.363 816.601 830.034 778.599L774.474 736.681ZM723.92 825.574C659.936 791.851 601.544 745.2 552.901 685.564L498.967 729.556C553.685 796.64 619.453 849.189 691.468 887.146L723.92 825.574ZM552.905 685.569C512.988 636.614 482.893 582.883 462.28 526.762L396.948 550.758C420.175 613.997 454.08 674.506 498.964 729.552L552.905 685.569ZM449.989 566.972C453.911 564.139 457.473 561.191 460.057 559.063L415.812 505.337C412.956 507.689 411.077 509.221 409.239 510.548L449.989 566.972ZM459.899 559.193C477.265 545.062 493.504 530.165 508.781 514.887L459.567 465.673C445.724 479.515 431.244 492.779 415.97 505.208L459.899 559.193ZM508.833 514.835C589.38 433.95 643.475 335.075 669.919 230.144L602.429 213.136C578.954 306.286 530.969 393.97 459.515 465.724L508.833 514.835ZM611.205 245.88C695.785 333.003 800.904 390.645 912.589 417.253L928.719 349.548C829.524 325.915 736.243 274.758 661.143 197.4L611.205 245.88ZM945.299 407.97L945.459 407.81L896.169 358.67L896.009 358.83L945.299 407.97ZM1257.19 110.813C1305.43 170.063 1339.43 235.987 1359.57 304.852L1426.37 285.308C1403.64 207.613 1365.32 133.377 1311.16 66.8669L1257.19 110.813ZM1373.24 266.418C1338.8 290.135 1302.5 309.698 1265.13 324.707L1291.06 389.293C1333.37 372.302 1374.19 350.266 1412.71 323.742L1373.24 266.418ZM1265.08 324.723C1157.17 368.221 1039.29 376.051 928.812 349.41L912.496 417.07C1036.9 447.069 1169.58 438.259 1291.1 389.277L1265.08 324.723ZM928.719 349.387C829.524 325.755 736.243 274.597 661.143 197.24L611.205 245.72C695.785 332.843 800.904 390.485 912.589 417.093L928.719 349.387ZM669.891 230.093C683.807 175.617 690.063 119.703 689.049 63.7292L619.46 64.9907C620.365 114.937 614.781 164.623 602.457 212.867L669.891 230.093ZM645.723 98.098C704.625 112.993 765.779 119.44 826.839 116.726L823.749 47.1943C769.61 49.6005 715.243 43.8871 662.786 30.6219L645.723 98.098ZM826.776 116.728C922.25 112.659 1017.36 86.3723 1104.12 37.5708L1069.99 -23.0909C992.911 20.2678 908.499 43.5815 823.812 47.1916L826.776 116.728ZM1104.25 37.4971C1126.49 24.8593 1148.28 10.8409 1169.44 -4.73279L1128.19 -60.7872C1109.35 -46.921 1089.86 -34.3793 1069.86 -23.0171L1104.25 37.4971ZM1129.84 -3.59073C1176.81 26.9697 1219.85 65.0481 1257.21 110.838L1311.14 66.842C1269.13 15.3518 1220.66 -27.5297 1167.79 -61.9293L1129.84 -3.59073ZM863.454 1535.72V1260.84H793.854V1535.72H863.454ZM856.619 1240.13L751.499 1098.21L695.57 1139.63L800.69 1281.55L856.619 1240.13ZM1168.17 1500.92H489.134V1570.52H1168.17V1500.92ZM264.324 -434.135L337.923 -335.895L393.625 -377.625L320.025 -475.865L264.324 -434.135ZM344.906 -384.609C-35.5932 -99.4844 -112.964 440.252 172.331 820.756L228.017 779.004C-34.2077 429.268 36.9019 -66.8356 386.643 -328.911L344.906 -384.609ZM172.324 820.747C298.862 989.631 475.661 1098.88 666.401 1143.06L682.108 1075.26C506.768 1034.64 344.366 934.289 228.024 779.013L172.324 820.747ZM666.4 1143.06C905.25 1198.4 1166.08 1151.9 1377.68 993.328L1335.94 937.632C1141.46 1083.38 901.819 1126.16 682.109 1075.26L666.4 1143.06ZM1328.97 986.353L1407.05 1090.51L1462.74 1048.77L1384.66 944.607L1328.97 986.353Z" fill="#345D68"/>
</svg>
