<svg width="341" height="129" viewBox="0 0 341 129" fill="none" xmlns="http://www.w3.org/2000/svg">
<g clip-path="url(#clip0_6_40)">
<path d="M39.75 44.46C38.19 50.66 34.99 56.48 30.25 61.26C29.35 62.17 28.38 63.05 27.37 63.87C27.19 64.02 27.02 64.15 26.84 64.29C24.98 65.75 23.05 66.99 21.03 68.03C17.58 61.27 16.4 53.74 17.38 46.47C18.33 39.43 21.3 32.64 26.22 27.09C26.73 26.5 27.26 25.93 27.83 25.38C28.42 24.78 29.03 24.2 29.67 23.66C29.96 23.4 30.26 23.15 30.56 22.91C31.33 22.28 32.14 21.68 32.93 21.11C32.93 21.11 33.01 21.06 33.05 21.03C33.27 20.88 33.5 20.73 33.73 20.57C33.97 20.42 34.2 20.27 34.44 20.13C34.92 19.82 35.42 19.53 35.91 19.26C36.24 19.09 36.56 18.9 36.89 18.74C37.48 19.86 37.98 21.01 38.43 22.19C38.5 22.36 38.56 22.52 38.63 22.69C38.78 23.09 38.91 23.49 39.04 23.89C39.14 24.19 39.24 24.49 39.33 24.79C40.3 28.01 40.81 31.32 40.88 34.62C40.94 37.93 40.56 41.24 39.74 44.44L39.75 44.46Z" stroke="#F9FAFB" stroke-width="4.35" stroke-linecap="round" stroke-linejoin="round"/>
<path d="M79.88 52.93C81.21 61.48 79.49 70.35 74.89 77.83C66.86 80.76 58.08 80.76 50.13 77.97C55.29 71.16 57.81 62.86 57.54 54.57C64.89 56.33 72.71 55.82 79.88 52.93Z" stroke="#F9FAFB" stroke-width="4.35" stroke-linecap="round" stroke-linejoin="round"/>
<path d="M36.9 18.75C36.57 18.91 36.24 19.08 35.92 19.27C35.43 19.54 34.94 19.83 34.45 20.14C34.21 20.27 33.97 20.42 33.74 20.58C33.51 20.73 33.28 20.88 33.06 21.04C33.02 21.07 32.94 21.12 32.94 21.12C32.14 21.69 31.34 22.29 30.57 22.92" stroke="#F9FAFB" stroke-width="4.35" stroke-linecap="round" stroke-linejoin="round"/>
<path d="M79.88 52.93C81.21 61.48 79.49 70.35 74.89 77.83C66.86 80.76 58.08 80.76 50.13 77.97C55.29 71.16 57.81 62.86 57.54 54.57C64.89 56.33 72.71 55.82 79.88 52.93Z" stroke="#F9FAFB" stroke-width="4.35" stroke-linecap="round" stroke-linejoin="round"/>
<path d="M79.88 52.93C81.21 61.48 79.49 70.35 74.89 77.83C66.86 80.76 58.08 80.76 50.13 77.97C55.29 71.16 57.81 62.86 57.54 54.57C64.89 56.33 72.71 55.82 79.88 52.93Z" stroke="#F9FAFB" stroke-width="4.35" stroke-linecap="round" stroke-linejoin="round"/>
<path d="M79.88 52.93C81.21 61.48 79.49 70.35 74.89 77.83C66.86 80.76 58.08 80.76 50.13 77.97C55.29 71.16 57.81 62.86 57.54 54.57C64.89 56.33 72.71 55.82 79.88 52.93Z" stroke="#F9FAFB" stroke-width="4.35" stroke-linecap="round" stroke-linejoin="round"/>
<path d="M77.52 23.32C76.21 24.81 74.76 26.21 73.17 27.5C72.72 27.87 72.26 28.23 71.79 28.58C70.55 29.5 69.25 30.33 67.93 31.08C62.81 33.96 57.2 35.5 51.57 35.75C47.97 35.91 44.37 35.54 40.88 34.65C40.81 31.35 40.31 28.03 39.34 24.82C39.25 24.51 39.16 24.21 39.05 23.92C38.92 23.51 38.78 23.11 38.63 22.71C38.57 22.54 38.5 22.38 38.44 22.2C37.98 21.03 37.48 19.87 36.89 18.75C43.67 15.22 51.25 14 58.56 14.96C65.41 15.86 72.02 18.67 77.51 23.33L77.52 23.32Z" stroke="#F9FAFB" stroke-width="4.35" stroke-linecap="round" stroke-linejoin="round"/>
<path d="M57.54 54.57C57.81 62.86 55.29 71.15 50.13 77.97C48.44 80.21 46.47 82.28 44.22 84.14C39.97 81.9 36.09 78.8 32.86 74.84C30.21 71.59 28.21 68.02 26.84 64.29C27.02 64.16 27.19 64.02 27.36 63.88C28.38 63.05 29.34 62.17 30.25 61.26C35 56.49 38.19 50.66 39.75 44.47C44.74 49.61 50.94 53.01 57.53 54.58L57.54 54.57Z" stroke="#F9FAFB" stroke-width="4.35" stroke-linecap="round" stroke-linejoin="round"/>
<path d="M80.25 36.1699C83.45 40.0999 85.71 44.4799 87.05 49.0599C84.77 50.6299 82.36 51.9299 79.87 52.9299C72.7 55.8199 64.87 56.3399 57.53 54.5699C50.94 52.9999 44.74 49.5999 39.75 44.4599C40.57 41.2499 40.94 37.9499 40.88 34.6399C44.36 35.5199 47.97 35.8999 51.57 35.7399C57.2 35.4999 62.81 33.9499 67.93 31.0699C69.25 30.3199 70.54 29.4899 71.79 28.5699C74.91 30.5999 77.77 33.1299 80.25 36.1699Z" stroke="#F9FAFB" stroke-width="4.35" stroke-linecap="round" stroke-linejoin="round"/>
<path d="M79.88 52.93C81.21 61.48 79.49 70.35 74.89 77.83C66.86 80.76 58.08 80.76 50.13 77.97C55.29 71.16 57.81 62.86 57.54 54.57C64.89 56.33 72.71 55.82 79.88 52.93Z" stroke="#F9FAFB" stroke-width="4.35" stroke-linecap="round" stroke-linejoin="round"/>
<path d="M51.78 126.6V109.42L45.21 100.55" stroke="#F9FAFB" stroke-width="4.35" stroke-linejoin="round"/>
<path d="M73 126.6H30.56" stroke="#F9FAFB" stroke-width="4.35" stroke-miterlimit="10" stroke-linecap="round"/>
<path d="M18.25 2.17999L22.85 8.31999C0.0300045 25.42 -4.61 57.79 12.5 80.61C20.09 90.74 30.69 97.29 42.13 99.94C56.46 103.26 72.1 100.47 84.79 90.96L89.67 97.47" stroke="#F9FAFB" stroke-width="4.35" stroke-linecap="round" stroke-linejoin="round"/>
<path d="M170.51 47.96V41.51C171.28 41.7 172.06 41.77 172.83 41.77C175.67 41.77 177.02 40.42 177.02 37.45V2.82001H184.11V37.25C184.11 44.67 180.76 48.21 173.79 48.21C172.5 48.21 171.53 48.15 170.5 47.95L170.51 47.96Z" fill="#F9FAFB"/>
<path d="M188.69 37.25V13.53C188.69 6.30999 192.49 2.17999 199.46 2.17999C206.43 2.17999 210.23 6.30999 210.23 13.53V37.26C210.23 44.48 206.43 48.61 199.46 48.61C192.49 48.61 188.69 44.48 188.69 37.26V37.25ZM203.13 37.7V13.07C203.13 9.84999 201.71 8.61999 199.46 8.61999C197.21 8.61999 195.78 9.84999 195.78 13.07V37.7C195.78 40.92 197.2 42.15 199.46 42.15C201.72 42.15 203.13 40.92 203.13 37.7Z" fill="#F9FAFB"/>
<path d="M214.73 37.25V2.82001H221.82V37.77C221.82 40.99 223.17 42.15 225.43 42.15C227.69 42.15 229.04 40.99 229.04 37.77V2.82001H235.87V37.25C235.87 44.47 232.26 48.6 225.3 48.6C218.34 48.6 214.72 44.47 214.72 37.25H214.73Z" fill="#F9FAFB"/>
<path d="M240.91 2.82001H251.42C258.77 2.82001 261.93 6.24001 261.93 13.2V15.97C261.93 20.61 260.45 23.58 257.29 24.87V25C260.84 26.1 262 29.45 262 34.54V42.47C262 44.66 262.06 46.27 262.77 47.95H255.55C255.16 46.79 254.9 46.08 254.9 42.4V34.15C254.9 29.96 253.67 28.6 250.45 28.6H248V47.94H240.91V2.82001ZM250.58 22.16C253.22 22.16 254.84 21 254.84 17.39V13.91C254.84 10.69 253.74 9.27001 251.23 9.27001H248.01V22.17H250.59L250.58 22.16Z" fill="#F9FAFB"/>
<path d="M266.89 2.82001H275.79L282.69 29.84H282.82V2.82001H289.14V47.96H281.85L273.34 15.01H273.21V47.96H266.89V2.82001Z" fill="#F9FAFB"/>
<path d="M294.42 2.82001H313.76V9.27001H301.51V21.2H311.25V27.65H301.51V41.51H313.76V47.96H294.42V2.82001Z" fill="#F9FAFB"/>
<path d="M324.34 28.74L315.76 2.82001H323.3L328.14 19.39H328.27L333.11 2.82001H340.01L331.43 28.74V47.95H324.34V28.74Z" fill="#F9FAFB"/>
<path d="M170.67 55.72H187.48C199.02 55.72 203.98 61.09 203.98 72.02V74.86C203.98 82.15 201.75 86.71 196.79 88.73V88.93C202.76 90.95 205.09 96.22 205.09 103.71V109.78C205.09 120.71 199.32 126.59 188.18 126.59H170.66V55.72H170.67ZM186.16 84.58C190.31 84.58 192.84 82.76 192.84 77.09V73.14C192.84 68.08 191.12 65.85 187.17 65.85H181.8V84.58H186.15H186.16ZM188.19 116.48C191.94 116.48 193.96 114.76 193.96 109.49V103.31C193.96 96.73 191.83 94.7 186.77 94.7H181.81V116.47H188.19V116.48Z" fill="#F9FAFB"/>
<path d="M211.57 55.72H228.07C239.61 55.72 244.57 61.09 244.57 72.02V76.37C244.57 83.66 242.24 88.32 237.28 90.34V90.54C242.85 92.26 244.67 97.53 244.67 105.52V117.97C244.67 121.41 244.77 123.94 245.89 126.58H234.55C233.94 124.76 233.54 123.64 233.54 117.87V104.91C233.54 98.33 231.62 96.2 226.55 96.2H222.7V126.57H211.56V55.72H211.57ZM226.76 86.09C230.91 86.09 233.44 84.27 233.44 78.6V73.13C233.44 68.07 231.72 65.84 227.77 65.84H222.71V86.09H226.76Z" fill="#F9FAFB"/>
<path d="M252.37 55.72H282.74V65.84H263.5V84.57H278.79V94.7H263.5V116.47H282.74V126.59H252.37V55.72Z" fill="#F9FAFB"/>
<path d="M286.49 55.72H297.22L302.18 110.19H302.38L307.64 55.72H319.79L325.05 110.19H325.25L330.21 55.72H339.83L332.64 126.6H318.77L313.71 78.81H313.51L308.45 126.6H293.67L286.48 55.72H286.49Z" fill="#F9FAFB"/>
<path d="M130.57 2.17999V126.6" stroke="#F9FAFB" stroke-width="4.35" stroke-linecap="round" stroke-linejoin="round"/>
</g>
<defs>
<clipPath id="clip0_6_40">
<rect width="340.01" height="128.77" fill="white"/>
</clipPath>
</defs>
</svg>
