<?xml version="1.0" encoding="UTF-8"?>
<svg id="Layer_2" data-name="Layer 2" xmlns="http://www.w3.org/2000/svg" viewBox="0 0 104.43 115.89">
  <defs>
    <style>
      .cls-1 {
        stroke-width: 1.26px;
      }

      .cls-1, .cls-2 {
        fill: none;
        stroke: #fafbfc;
        stroke-linecap: round;
        stroke-linejoin: round;
      }

      .cls-2 {
        stroke-width: 1.26px;
      }
    </style>
  </defs>
  <g id="Layer_1-2" data-name="Layer 1">
    <path class="cls-2" d="m67.82,77.53c0-7.33,1.75-13.85,8.6-23.56,7.8-11.15,9.88-17.99,9.88-26.43,0-7.96-3.19-10.99-8.76-10.99s-8.75,3.03-8.75,10.99v12.1h-16.57v-10.98C52.21,10.82,60.82.63,77.86.63s25.94,10.19,25.94,28.03c0,9.71-3.02,17.83-11.62,29.3-6.85,9.23-9.08,14.64-9.08,20.21v6.05h-15.29v-6.69Z"/>
    <g>
      <path class="cls-1" d="m71.91,103.82c-.45,1.79-1.37,3.47-2.74,4.85-.26.26-.54.52-.83.75-.05.04-.1.08-.15.12-.54.42-1.09.78-1.68,1.08-1-1.95-1.34-4.12-1.05-6.22.27-2.03,1.13-3.99,2.55-5.59.15-.17.3-.33.47-.49h0c.17-.17.35-.34.53-.5.08-.07.17-.15.26-.22.22-.18.45-.35.68-.52,0,0,.02-.02.03-.02.06-.04.13-.09.2-.13.07-.04.14-.09.21-.13.14-.09.28-.17.42-.25.09-.05.19-.1.28-.15.17.32.31.66.45.99.02.05.04.1.06.15.04.11.08.23.12.35.03.09.06.17.08.26.28.93.43,1.88.45,2.84.02.95-.09,1.91-.33,2.83Z"/>
      <path class="cls-1" d="m83.49,106.26c.38,2.47-.11,5.02-1.44,7.18-2.32.85-4.85.85-7.14.04,1.49-1.96,2.22-4.36,2.14-6.75,2.12.51,4.38.36,6.44-.47Z"/>
      <path class="cls-1" d="m71.09,96.4c-.09.05-.19.1-.28.15-.14.08-.28.16-.42.25-.07.04-.14.08-.21.13-.07.04-.13.09-.2.13-.01,0-.03.02-.03.02-.23.16-.46.34-.68.52"/>
      <path class="cls-1" d="m83.49,106.26c.38,2.47-.11,5.02-1.44,7.18-2.32.85-4.85.85-7.14.04,1.49-1.96,2.22-4.36,2.14-6.75,2.12.51,4.38.36,6.44-.47Z"/>
      <path class="cls-1" d="m83.49,106.26c.38,2.47-.11,5.02-1.44,7.18-2.32.85-4.85.85-7.14.04,1.49-1.96,2.22-4.36,2.14-6.75,2.12.51,4.38.36,6.44-.47Z"/>
      <path class="cls-1" d="m83.49,106.26c.38,2.47-.11,5.02-1.44,7.18-2.32.85-4.85.85-7.14.04,1.49-1.96,2.22-4.36,2.14-6.75,2.12.51,4.38.36,6.44-.47Z"/>
      <path class="cls-1" d="m82.81,97.72c-.38.43-.8.83-1.25,1.21-.13.11-.26.21-.4.31-.36.27-.73.51-1.11.72-1.48.83-3.09,1.28-4.72,1.35-1.04.05-2.08-.06-3.08-.32-.02-.95-.17-1.91-.45-2.83-.03-.09-.05-.18-.08-.26-.04-.12-.08-.23-.12-.35-.02-.05-.04-.1-.05-.15-.13-.34-.28-.67-.45-1,1.96-1.02,4.14-1.37,6.25-1.09,1.98.26,3.88,1.07,5.46,2.41Z"/>
      <path class="cls-1" d="m77.04,106.73c.08,2.39-.65,4.78-2.14,6.75-.49.65-1.06,1.24-1.7,1.78-1.23-.65-2.34-1.54-3.28-2.68-.77-.94-1.34-1.97-1.74-3.04.05-.04.1-.08.15-.12.29-.24.57-.49.83-.76,1.37-1.38,2.29-3.06,2.74-4.84,1.44,1.48,3.23,2.46,5.13,2.92Z"/>
      <path class="cls-1" d="m83.59,101.43c.92,1.13,1.57,2.4,1.96,3.72-.66.45-1.35.83-2.07,1.12-2.07.83-4.32.98-6.44.47-1.9-.45-3.69-1.43-5.13-2.92.24-.92.34-1.88.33-2.83,1,.25,2.05.36,3.08.32,1.62-.07,3.24-.52,4.72-1.35.38-.22.75-.45,1.11-.72.9.58,1.72,1.31,2.44,2.19Z"/>
      <path class="cls-1" d="m83.49,106.26c.38,2.47-.11,5.02-1.44,7.18-2.32.85-4.85.85-7.14.04,1.49-1.96,2.22-4.36,2.14-6.75,2.12.51,4.38.36,6.44-.47Z"/>
    </g>
    <path class="cls-2" d="m36.6,38.36c0,7.33-1.75,13.85-8.6,23.56-7.8,11.15-9.88,17.99-9.88,26.43,0,7.96,3.19,10.99,8.76,10.99s8.75-3.03,8.75-10.99v-12.1h16.57v10.98c0,17.84-8.61,28.03-25.64,28.03S.63,105.07.63,87.23c0-9.71,3.02-17.83,11.62-29.3,6.85-9.23,9.08-14.64,9.08-20.21v-6.05h15.29v6.69Z"/>
    <g>
      <path class="cls-1" d="m25.42,9.23c-.45,1.79-1.37,3.47-2.74,4.85-.26.26-.54.52-.83.75-.05.04-.1.08-.15.12-.54.42-1.09.78-1.68,1.08-1-1.95-1.34-4.12-1.05-6.22.27-2.03,1.13-3.99,2.55-5.59.15-.17.3-.33.47-.49h0c.17-.17.35-.34.53-.5.08-.07.17-.15.26-.22.22-.18.45-.35.68-.52,0,0,.02-.02.03-.02.06-.04.13-.09.2-.13.07-.04.14-.09.21-.13.14-.09.28-.17.42-.25.09-.05.19-.1.28-.15.17.32.31.66.45.99.02.05.04.1.06.15.04.11.08.23.12.35.03.09.06.17.08.26.28.93.43,1.88.45,2.84.02.95-.09,1.91-.33,2.83Z"/>
      <path class="cls-1" d="m36.99,11.67c.38,2.47-.11,5.02-1.44,7.18-2.32.85-4.85.85-7.14.04,1.49-1.96,2.22-4.36,2.14-6.75,2.12.51,4.38.36,6.44-.47Z"/>
      <path class="cls-1" d="m24.6,1.81c-.09.05-.19.1-.28.15-.14.08-.28.16-.42.25-.07.04-.14.08-.21.13-.07.04-.13.09-.2.13-.01,0-.03.02-.03.02-.23.16-.46.34-.68.52"/>
      <path class="cls-1" d="m36.99,11.67c.38,2.47-.11,5.02-1.44,7.18-2.32.85-4.85.85-7.14.04,1.49-1.96,2.22-4.36,2.14-6.75,2.12.51,4.38.36,6.44-.47Z"/>
      <path class="cls-1" d="m36.99,11.67c.38,2.47-.11,5.02-1.44,7.18-2.32.85-4.85.85-7.14.04,1.49-1.96,2.22-4.36,2.14-6.75,2.12.51,4.38.36,6.44-.47Z"/>
      <path class="cls-1" d="m36.99,11.67c.38,2.47-.11,5.02-1.44,7.18-2.32.85-4.85.85-7.14.04,1.49-1.96,2.22-4.36,2.14-6.75,2.12.51,4.38.36,6.44-.47Z"/>
      <path class="cls-1" d="m36.31,3.13c-.38.43-.8.83-1.25,1.21-.13.11-.26.21-.4.31-.36.27-.73.51-1.11.72-1.48.83-3.09,1.28-4.72,1.35-1.04.05-2.08-.06-3.08-.32-.02-.95-.17-1.91-.45-2.83-.03-.09-.05-.18-.08-.26-.04-.12-.08-.23-.12-.35-.02-.05-.04-.1-.05-.15-.13-.34-.28-.67-.45-1,1.96-1.02,4.14-1.37,6.25-1.09,1.98.26,3.88,1.07,5.46,2.41Z"/>
      <path class="cls-1" d="m30.55,12.15c.08,2.39-.65,4.78-2.14,6.75-.49.65-1.06,1.24-1.7,1.78-1.23-.65-2.34-1.54-3.28-2.68-.77-.94-1.34-1.97-1.74-3.04.05-.04.1-.08.15-.12.29-.24.57-.49.83-.76,1.37-1.38,2.29-3.06,2.74-4.84,1.44,1.48,3.23,2.46,5.13,2.92Z"/>
      <path class="cls-1" d="m37.1,6.84c.92,1.13,1.57,2.4,1.96,3.72-.66.45-1.35.83-2.07,1.12-2.07.83-4.32.98-6.44.47-1.9-.45-3.69-1.43-5.13-2.92.24-.92.34-1.88.33-2.83,1,.25,2.05.36,3.08.32,1.62-.07,3.24-.52,4.72-1.35.38-.22.75-.45,1.11-.72.9.58,1.72,1.31,2.44,2.19Z"/>
      <path class="cls-1" d="m36.99,11.67c.38,2.47-.11,5.02-1.44,7.18-2.32.85-4.85.85-7.14.04,1.49-1.96,2.22-4.36,2.14-6.75,2.12.51,4.38.36,6.44-.47Z"/>
    </g>
  </g>
</svg>